<?xml version="1.0" encoding="UTF-8" standalone="no"?><svg xmlns="http://www.w3.org/2000/svg" xmlns:xlink="http://www.w3.org/1999/xlink" contentScriptType="application/ecmascript" contentStyleType="text/css" height="618px" preserveAspectRatio="none" style="width:1940px;height:618px;" version="1.1" viewBox="0 0 1940 618" width="1940px" zoomAndPan="magnify"><defs><filter height="300%" id="f1rrr2d2399cu7" width="300%" x="-1" y="-1"><feGaussianBlur result="blurOut" stdDeviation="2.0"/><feColorMatrix in="blurOut" result="blurOut2" type="matrix" values="0 0 0 0 0 0 0 0 0 0 0 0 0 0 0 0 0 0 .4 0"/><feOffset dx="4.0" dy="4.0" in="blurOut2" result="blurOut3"/><feBlend in="SourceGraphic" in2="blurOut3" mode="normal"/></filter></defs><g><!--cluster org.junit.jupiter--><polygon fill="#FFFFFF" filter="url(#f1rrr2d2399cu7)" points="22,312,140,312,147,334.4883,680,334.4883,680,495,22,495,22,312" style="stroke: #000000; stroke-width: 1.5;"/><line style="stroke: #000000; stroke-width: 1.5;" x1="22" x2="147" y1="334.4883" y2="334.4883"/><text fill="#000000" font-family="Open Sans" font-size="14" font-weight="bold" lengthAdjust="spacingAndGlyphs" textLength="112" x="26" y="327.5352">org.junit.jupiter</text><!--cluster org.junit.vintage--><polygon fill="#FFFFFF" filter="url(#f1rrr2d2399cu7)" points="754,312,877,312,884,334.4883,950,334.4883,950,495,754,495,754,312" style="stroke: #000000; stroke-width: 1.5;"/><line style="stroke: #000000; stroke-width: 1.5;" x1="754" x2="884" y1="334.4883" y2="334.4883"/><text fill="#000000" font-family="Open Sans" font-size="14" font-weight="bold" lengthAdjust="spacingAndGlyphs" textLength="117" x="758" y="327.5352">org.junit.vintage</text><!--cluster org.junit.platform--><polygon fill="#FFFFFF" filter="url(#f1rrr2d2399cu7)" points="974,24,1107,24,1114,46.4883,1674,46.4883,1674,606,974,606,974,24" style="stroke: #000000; stroke-width: 1.5;"/><line style="stroke: #000000; stroke-width: 1.5;" x1="974" x2="1114" y1="46.4883" y2="46.4883"/><text fill="#000000" font-family="Open Sans" font-size="14" font-weight="bold" lengthAdjust="spacingAndGlyphs" textLength="127" x="978" y="39.5352">org.junit.platform</text><!--cluster org.opentest4j--><polygon fill="#FFFFFF" filter="url(#f1rrr2d2399cu7)" points="672,519,782,519,789,541.4883,798,541.4883,798,606,672,606,672,519" style="stroke: #000000; stroke-width: 1.5;"/><line style="stroke: #000000; stroke-width: 1.5;" x1="672" x2="789" y1="541.4883" y2="541.4883"/><text fill="#000000" font-family="Open Sans" font-size="14" font-weight="bold" lengthAdjust="spacingAndGlyphs" textLength="104" x="676" y="534.5352">org.opentest4j</text><!--cluster org.apiguardian--><polygon fill="#FFFFFF" filter="url(#f1rrr2d2399cu7)" points="1698,24,1816,24,1823,46.4883,1918,46.4883,1918,288,1698,288,1698,24" style="stroke: #000000; stroke-width: 1.5;"/><line style="stroke: #000000; stroke-width: 1.5;" x1="1698" x2="1823" y1="46.4883" y2="46.4883"/><text fill="#000000" font-family="Open Sans" font-size="14" font-weight="bold" lengthAdjust="spacingAndGlyphs" textLength="112" x="1702" y="39.5352">org.apiguardian</text><!--entity jupiter_api--><rect fill="#FEFECE" filter="url(#f1rrr2d2399cu7)" height="36.4883" style="stroke: #A80036; stroke-width: 1.5;" width="133" x="517.5" y="443"/><rect fill="#FEFECE" height="5" style="stroke: #A80036; stroke-width: 1.5;" width="10" x="512.5" y="448"/><rect fill="#FEFECE" height="5" style="stroke: #A80036; stroke-width: 1.5;" width="10" x="512.5" y="469.4883"/><text fill="#000000" font-family="Open Sans" font-size="14" lengthAdjust="spacingAndGlyphs" textLength="113" x="527.5" y="466.5352">junit-jupiter-api</text><!--entity jupiter_engine--><rect fill="#FEFECE" filter="url(#f1rrr2d2399cu7)" height="36.4883" style="stroke: #A80036; stroke-width: 1.5;" width="159" x="504.5" y="347"/><rect fill="#FEFECE" height="5" style="stroke: #A80036; stroke-width: 1.5;" width="10" x="499.5" y="352"/><rect fill="#FEFECE" height="5" style="stroke: #A80036; stroke-width: 1.5;" width="10" x="499.5" y="373.4883"/><text fill="#000000" font-family="Open Sans" font-size="14" lengthAdjust="spacingAndGlyphs" textLength="139" x="514.5" y="370.5352">junit-jupiter-engine</text><!--entity jupiter_params--><rect fill="#FEFECE" filter="url(#f1rrr2d2399cu7)" height="36.4883" style="stroke: #A80036; stroke-width: 1.5;" width="163" x="38.5" y="347"/><rect fill="#FEFECE" height="5" style="stroke: #A80036; stroke-width: 1.5;" width="10" x="33.5" y="352"/><rect fill="#FEFECE" height="5" style="stroke: #A80036; stroke-width: 1.5;" width="10" x="33.5" y="373.4883"/><text fill="#000000" font-family="Open Sans" font-size="14" lengthAdjust="spacingAndGlyphs" textLength="143" x="48.5" y="370.5352">junit-jupiter-params</text><!--entity jupiter_migration_support--><rect fill="#FEFECE" filter="url(#f1rrr2d2399cu7)" height="36.4883" style="stroke: #A80036; stroke-width: 1.5;" width="233" x="236.5" y="347"/><rect fill="#FEFECE" height="5" style="stroke: #A80036; stroke-width: 1.5;" width="10" x="231.5" y="352"/><rect fill="#FEFECE" height="5" style="stroke: #A80036; stroke-width: 1.5;" width="10" x="231.5" y="373.4883"/><text fill="#000000" font-family="Open Sans" font-size="14" lengthAdjust="spacingAndGlyphs" textLength="213" x="246.5" y="370.5352">junit-jupiter-migrationsupport</text><!--entity vintage_engine--><rect fill="#FEFECE" filter="url(#f1rrr2d2399cu7)" height="36.4883" style="stroke: #A80036; stroke-width: 1.5;" width="164" x="770" y="347"/><rect fill="#FEFECE" height="5" style="stroke: #A80036; stroke-width: 1.5;" width="10" x="765" y="352"/><rect fill="#FEFECE" height="5" style="stroke: #A80036; stroke-width: 1.5;" width="10" x="765" y="373.4883"/><text fill="#000000" font-family="Open Sans" font-size="14" lengthAdjust="spacingAndGlyphs" textLength="144" x="780" y="370.5352">junit-vintage-engine</text><!--entity junit4--><rect fill="#FEFECE" filter="url(#f1rrr2d2399cu7)" height="36.4883" style="stroke: #A80036; stroke-width: 1.5;" width="86" x="770" y="443"/><rect fill="#FEFECE" height="5" style="stroke: #A80036; stroke-width: 1.5;" width="10" x="765" y="448"/><rect fill="#FEFECE" height="5" style="stroke: #A80036; stroke-width: 1.5;" width="10" x="765" y="469.4883"/><text fill="#000000" font-family="Open Sans" font-size="14" lengthAdjust="spacingAndGlyphs" textLength="66" x="780" y="466.5352">junit:junit</text><!--entity commons--><rect fill="#FEFECE" filter="url(#f1rrr2d2399cu7)" height="36.4883" style="stroke: #A80036; stroke-width: 1.5;" width="193" x="990.5" y="554"/><rect fill="#FEFECE" height="5" style="stroke: #A80036; stroke-width: 1.5;" width="10" x="985.5" y="559"/><rect fill="#FEFECE" height="5" style="stroke: #A80036; stroke-width: 1.5;" width="10" x="985.5" y="580.4883"/><text fill="#000000" font-family="Open Sans" font-size="14" lengthAdjust="spacingAndGlyphs" textLength="173" x="1000.5" y="577.5352">junit-platform-commons</text><!--entity console--><rect fill="#FEFECE" filter="url(#f1rrr2d2399cu7)" height="36.4883" style="stroke: #A80036; stroke-width: 1.5;" width="179" x="1478.5" y="195.5"/><rect fill="#FEFECE" height="5" style="stroke: #A80036; stroke-width: 1.5;" width="10" x="1473.5" y="200.5"/><rect fill="#FEFECE" height="5" style="stroke: #A80036; stroke-width: 1.5;" width="10" x="1473.5" y="221.9883"/><text fill="#000000" font-family="Open Sans" font-size="14" lengthAdjust="spacingAndGlyphs" textLength="159" x="1488.5" y="219.0352">junit-platform-console</text><!--entity engine--><rect fill="#FEFECE" filter="url(#f1rrr2d2399cu7)" height="36.4883" style="stroke: #A80036; stroke-width: 1.5;" width="173" x="990.5" y="443"/><rect fill="#FEFECE" height="5" style="stroke: #A80036; stroke-width: 1.5;" width="10" x="985.5" y="448"/><rect fill="#FEFECE" height="5" style="stroke: #A80036; stroke-width: 1.5;" width="10" x="985.5" y="469.4883"/><text fill="#000000" font-family="Open Sans" font-size="14" lengthAdjust="spacingAndGlyphs" textLength="153" x="1000.5" y="466.5352">junit-platform-engine</text><!--entity gradle--><rect fill="#FEFECE" filter="url(#f1rrr2d2399cu7)" height="36.4883" style="stroke: #A80036; stroke-width: 1.5;" width="222" x="1436" y="59"/><rect fill="#FEFECE" height="5" style="stroke: #A80036; stroke-width: 1.5;" width="10" x="1431" y="64"/><rect fill="#FEFECE" height="5" style="stroke: #A80036; stroke-width: 1.5;" width="10" x="1431" y="85.4883"/><text fill="#000000" font-family="Open Sans" font-size="14" lengthAdjust="spacingAndGlyphs" textLength="202" x="1446" y="82.5352">junit-platform-gradle-plugin</text><!--entity launcher--><rect fill="#FEFECE" filter="url(#f1rrr2d2399cu7)" height="36.4883" style="stroke: #A80036; stroke-width: 1.5;" width="186" x="1199" y="347"/><rect fill="#FEFECE" height="5" style="stroke: #A80036; stroke-width: 1.5;" width="10" x="1194" y="352"/><rect fill="#FEFECE" height="5" style="stroke: #A80036; stroke-width: 1.5;" width="10" x="1194" y="373.4883"/><text fill="#000000" font-family="Open Sans" font-size="14" lengthAdjust="spacingAndGlyphs" textLength="166" x="1209" y="370.5352">junit-platform-launcher</text><!--entity runner--><rect fill="#FEFECE" filter="url(#f1rrr2d2399cu7)" height="36.4883" style="stroke: #A80036; stroke-width: 1.5;" width="173" x="990.5" y="195.5"/><rect fill="#FEFECE" height="5" style="stroke: #A80036; stroke-width: 1.5;" width="10" x="985.5" y="200.5"/><rect fill="#FEFECE" height="5" style="stroke: #A80036; stroke-width: 1.5;" width="10" x="985.5" y="221.9883"/><text fill="#000000" font-family="Open Sans" font-size="14" lengthAdjust="spacingAndGlyphs" textLength="153" x="1000.5" y="219.0352">junit-platform-runner</text><!--entity suite_api--><rect fill="#FEFECE" filter="url(#f1rrr2d2399cu7)" height="36.4883" style="stroke: #A80036; stroke-width: 1.5;" width="188" x="1199" y="443"/><rect fill="#FEFECE" height="5" style="stroke: #A80036; stroke-width: 1.5;" width="10" x="1194" y="448"/><rect fill="#FEFECE" height="5" style="stroke: #A80036; stroke-width: 1.5;" width="10" x="1194" y="469.4883"/><text fill="#000000" font-family="Open Sans" font-size="14" lengthAdjust="spacingAndGlyphs" textLength="168" x="1209" y="466.5352">junit-platform-suite-api</text><!--entity surefire--><rect fill="#FEFECE" filter="url(#f1rrr2d2399cu7)" height="36.4883" style="stroke: #A80036; stroke-width: 1.5;" width="245" x="1198.5" y="195.5"/><rect fill="#FEFECE" height="5" style="stroke: #A80036; stroke-width: 1.5;" width="10" x="1193.5" y="200.5"/><rect fill="#FEFECE" height="5" style="stroke: #A80036; stroke-width: 1.5;" width="10" x="1193.5" y="221.9883"/><text fill="#000000" font-family="Open Sans" font-size="14" lengthAdjust="spacingAndGlyphs" textLength="225" x="1208.5" y="219.0352">junit-platform-surefire-provider</text><!--entity opentest4j--><rect fill="#FEFECE" filter="url(#f1rrr2d2399cu7)" height="36.4883" style="stroke: #A80036; stroke-width: 1.5;" width="93" x="688.5" y="554"/><rect fill="#FEFECE" height="5" style="stroke: #A80036; stroke-width: 1.5;" width="10" x="683.5" y="559"/><rect fill="#FEFECE" height="5" style="stroke: #A80036; stroke-width: 1.5;" width="10" x="683.5" y="580.4883"/><text fill="#000000" font-family="Open Sans" font-size="14" lengthAdjust="spacingAndGlyphs" textLength="73" x="698.5" y="577.5352">opentest4j</text><!--entity apiguardian--><rect fill="#FEFECE" filter="url(#f1rrr2d2399cu7)" height="36.4883" style="stroke: #A80036; stroke-width: 1.5;" width="132" x="1742" y="59"/><rect fill="#FEFECE" height="5" style="stroke: #A80036; stroke-width: 1.5;" width="10" x="1737" y="64"/><rect fill="#FEFECE" height="5" style="stroke: #A80036; stroke-width: 1.5;" width="10" x="1737" y="85.4883"/><text fill="#000000" font-family="Open Sans" font-size="14" lengthAdjust="spacingAndGlyphs" textLength="112" x="1752" y="82.5352">apiguardian-api</text><path d="M1714,155 L1714,272.1738 A0,0 0 0 0 1714,272.1738 L1902,272.1738 A0,0 0 0 0 1902,272.1738 L1902,165 L1892,155 L1812,155 L1808,95.035 L1804,155 L1714,155 A0,0 0 0 0 1714,155 " fill="#FFFFFF" filter="url(#f1rrr2d2399cu7)" style="stroke: #A80036; stroke-width: 1.0;"/><path d="M1892,155 L1892,165 L1902,165 L1892,155 " fill="#FFFFFF" style="stroke: #A80036; stroke-width: 1.0;"/><text fill="#000000" font-family="Open Sans" font-size="13" lengthAdjust="spacingAndGlyphs" textLength="119" x="1720" y="172.5684">All artifacts except</text><text fill="#000000" font-family="Open Sans" font-size="13" lengthAdjust="spacingAndGlyphs" textLength="160" x="1720" y="187.8789">opentest4j and junit:junit</text><text fill="#000000" font-family="Open Sans" font-size="13" lengthAdjust="spacingAndGlyphs" textLength="167" x="1720" y="203.1895">have a dependency on this</text><text fill="#000000" font-family="Open Sans" font-size="13" lengthAdjust="spacingAndGlyphs" textLength="150" x="1720" y="218.5">artifact. The edges have</text><text fill="#000000" font-family="Open Sans" font-size="13" lengthAdjust="spacingAndGlyphs" textLength="145" x="1720" y="233.8105">been omitted from this</text><text fill="#000000" font-family="Open Sans" font-size="13" lengthAdjust="spacingAndGlyphs" textLength="147" x="1720" y="249.1211">diagram for the sake of</text><text fill="#000000" font-family="Open Sans" font-size="13" lengthAdjust="spacingAndGlyphs" textLength="70" x="1720" y="264.4316">readability.</text><!--link jupiter_api to opentest4j--><path d="M607.594,479.031 C634.474,498.435 678.367,530.1191 706.968,550.7653 " fill="none" id="jupiter_api-opentest4j" style="stroke: #A80036; stroke-width: 1.0; stroke-dasharray: 7.0,7.0;"/><polygon fill="#A80036" points="711.074,553.7286,706.1187,545.2172,707.0202,550.8017,701.4356,551.7032,711.074,553.7286" style="stroke: #A80036; stroke-width: 1.0;"/><!--link jupiter_api to commons--><path d="M650.817,479.043 C682.065,486.775 719.84,495.781 754,503 C773.447,507.109 778.49,507.202 798,511 C866.966,524.4266 944.959,540.6824 1002.526,552.8853 " fill="none" id="jupiter_api-commons" style="stroke: #A80036; stroke-width: 1.0; stroke-dasharray: 7.0,7.0;"/><polygon fill="#A80036" points="1007.68,553.9789,999.7071,548.1968,1002.789,552.9404,998.0455,556.0223,1007.68,553.9789" style="stroke: #A80036; stroke-width: 1.0;"/><!--link jupiter_engine to engine--><path d="M663.757,381.207 C751.706,397.976 892.967,424.91 985.389,442.533 " fill="none" id="jupiter_engine-engine" style="stroke: #A80036; stroke-width: 1.0; stroke-dasharray: 7.0,7.0;"/><polygon fill="#A80036" points="990.303,443.47,982.2106,437.8563,985.3913,442.5342,980.7134,445.715,990.303,443.47" style="stroke: #A80036; stroke-width: 1.0;"/><!--link jupiter_engine to jupiter_api--><path d="M584,383.241 C584,398.479 584,420.807 584,437.458 " fill="none" id="jupiter_engine-jupiter_api" style="stroke: #A80036; stroke-width: 1.0; stroke-dasharray: 7.0,7.0;"/><polygon fill="#A80036" points="584,442.868,588,433.868,584,437.868,580,433.868,584,442.868" style="stroke: #A80036; stroke-width: 1.0;"/><!--link jupiter_params to jupiter_api--><path d="M201.62,382.535 C289.708,400.38 428.619,428.522 512.542,445.524 " fill="none" id="jupiter_params-jupiter_api" style="stroke: #A80036; stroke-width: 1.0; stroke-dasharray: 7.0,7.0;"/><polygon fill="#A80036" points="517.491,446.526,509.4643,440.8188,512.5905,445.5333,507.876,448.6596,517.491,446.526" style="stroke: #A80036; stroke-width: 1.0;"/><!--link jupiter_migration_support to jupiter_api--><path d="M394.832,383.023 C435.019,399.376 495.625,424.038 537.351,441.017 " fill="none" id="jupiter_migration_support-jupiter_api" style="stroke: #A80036; stroke-width: 1.0; stroke-dasharray: 7.0,7.0;"/><polygon fill="#A80036" points="542.089,442.945,535.2618,435.8464,537.4581,441.0595,532.245,443.2558,542.089,442.945" style="stroke: #A80036; stroke-width: 1.0;"/><!--link jupiter_migration_support to junit4--><path d="M436.303,383.023 C532.319,402.644 686.877,434.227 764.793,450.149 " fill="none" id="jupiter_migration_support-junit4" style="stroke: #A80036; stroke-width: 1.0; stroke-dasharray: 7.0,7.0;"/><polygon fill="#A80036" points="769.813,451.175,761.7965,445.4534,764.9143,450.1735,760.1942,453.2913,769.813,451.175" style="stroke: #A80036; stroke-width: 1.0;"/><!--link console to launcher--><path d="M1549,231.507 C1528.42,249.296 1494.09,277.195 1461,296 C1425.62,316.105 1383.11,333.178 1349.58,345.188 " fill="none" id="console-launcher" style="stroke: #A80036; stroke-width: 1.0; stroke-dasharray: 7.0,7.0;"/><polygon fill="#A80036" points="1344.7,346.924,1354.5194,347.6847,1349.4123,345.2523,1351.8447,340.1451,1344.7,346.924" style="stroke: #A80036; stroke-width: 1.0;"/><!--link gradle to console--><path d="M1549.66,95.035 C1553.43,119.157 1560.32,163.305 1564.5,190.069 " fill="none" id="gradle-console" style="stroke: #A80036; stroke-width: 1.0; stroke-dasharray: 7.0,7.0;"/><polygon fill="#A80036" points="1565.3,195.179,1567.8601,185.6687,1564.5268,190.2391,1559.9564,186.9058,1565.3,195.179" style="stroke: #A80036; stroke-width: 1.0;"/><!--link launcher to engine--><path d="M1253.07,383.023 C1215.74,399.342 1159.48,423.938 1120.65,440.914 " fill="none" id="launcher-engine" style="stroke: #A80036; stroke-width: 1.0; stroke-dasharray: 7.0,7.0;"/><polygon fill="#A80036" points="1116.01,442.945,1125.8586,443.0102,1120.5924,440.9446,1122.658,435.6783,1116.01,442.945" style="stroke: #A80036; stroke-width: 1.0;"/><!--link engine to opentest4j--><path d="M1024.5,479.026 C1001.627,486.424 974.497,495.172 950,503 C894.164,520.843 830.095,541.0754 786.523,554.7988 " fill="none" id="engine-opentest4j" style="stroke: #A80036; stroke-width: 1.0; stroke-dasharray: 7.0,7.0;"/><polygon fill="#A80036" points="781.579,556.3559,791.3648,557.4687,786.3482,554.8544,788.9625,549.8379,781.579,556.3559" style="stroke: #A80036; stroke-width: 1.0;"/><!--link engine to commons--><path d="M1078.56,479.031 C1080.28,497.798 1083.06,528.0547 1084.95,548.6998 " fill="none" id="engine-commons" style="stroke: #A80036; stroke-width: 1.0; stroke-dasharray: 7.0,7.0;"/><polygon fill="#A80036" points="1085.42,553.7286,1088.5796,544.4003,1084.9624,548.7496,1080.6132,545.1324,1085.42,553.7286" style="stroke: #A80036; stroke-width: 1.0;"/><!--link runner to launcher--><path d="M1097.58,231.773 C1118.18,248.791 1151.05,275.19 1181,296 C1205.88,313.286 1235.14,331.116 1257.38,344.179 " fill="none" id="runner-launcher" style="stroke: #A80036; stroke-width: 1.0; stroke-dasharray: 7.0,7.0;"/><polygon fill="#A80036" points="1261.72,346.727,1255.9779,338.7252,1257.4063,344.1988,1251.9327,345.6271,1261.72,346.727" style="stroke: #A80036; stroke-width: 1.0;"/><!--link runner to suite_api--><path d="M1084.72,231.864 C1099.75,264.315 1135.49,335.192 1181,383 C1202.96,406.073 1232.91,426.225 1256.31,440.119 " fill="none" id="runner-suite_api" style="stroke: #A80036; stroke-width: 1.0; stroke-dasharray: 7.0,7.0;"/><polygon fill="#A80036" points="1260.9,442.814,1255.1602,434.8106,1256.587,440.2845,1251.1131,441.7113,1260.9,442.814" style="stroke: #A80036; stroke-width: 1.0;"/><!--link runner to junit4--><path d="M990.139,226.459 C904.001,240.308 780.816,266.175 752,304 C730.722,331.929 740.457,349.841 752,383 C759.534,404.642 775.964,424.778 789.876,439.027 " fill="none" id="runner-junit4" style="stroke: #A80036; stroke-width: 1.0; stroke-dasharray: 7.0,7.0;"/><polygon fill="#A80036" points="793.724,442.886,790.2033,433.6879,790.1942,439.3448,784.5373,439.3356,793.724,442.886" style="stroke: #A80036; stroke-width: 1.0;"/><!--link suite_api to commons--><path d="M1260.81,479.031 C1223.73,498.651 1162.92,530.828 1123.94,551.4525 " fill="none" id="suite_api-commons" style="stroke: #A80036; stroke-width: 1.0; stroke-dasharray: 7.0,7.0;"/><polygon fill="#A80036" points="1119.3,553.9088,1129.1253,553.2275,1123.7176,551.5669,1125.3782,546.1593,1119.3,553.9088" style="stroke: #A80036; stroke-width: 1.0;"/><!--link surefire to launcher--><path d="M1317.67,231.65 C1312.41,258.766 1302.18,311.54 1296.34,341.609 " fill="none" id="surefire-launcher" style="stroke: #A80036; stroke-width: 1.0; stroke-dasharray: 7.0,7.0;"/><polygon fill="#A80036" points="1295.38,346.59,1301.02,338.516,1296.3318,341.6814,1293.1663,336.9932,1295.38,346.59" style="stroke: #A80036; stroke-width: 1.0;"/><!--link vintage_engine to engine--><path d="M892.746,383.023 C931.809,399.342 990.681,423.938 1031.32,440.914 " fill="none" id="vintage_engine-engine" style="stroke: #A80036; stroke-width: 1.0; stroke-dasharray: 7.0,7.0;"/><polygon fill="#A80036" points="1036.18,442.945,1029.4186,435.7837,1031.5667,441.0169,1026.3336,443.165,1036.18,442.945" style="stroke: #A80036; stroke-width: 1.0;"/><!--link vintage_engine to junit4--><path d="M844.847,383.241 C838.47,398.612 829.1,421.196 822.173,437.891 " fill="none" id="vintage_engine-junit4" style="stroke: #A80036; stroke-width: 1.0; stroke-dasharray: 7.0,7.0;"/><polygon fill="#A80036" points="820.108,442.868,827.2535,436.09,822.0254,438.2503,819.8651,433.0221,820.108,442.868" style="stroke: #A80036; stroke-width: 1.0;"/><!--
@startuml
skinparam {
    defaultFontName Open Sans
}

package org.junit.jupiter {
    [junit-jupiter-api] as jupiter_api
    [junit-jupiter-engine] as jupiter_engine
    [junit-jupiter-params] as jupiter_params
    [junit-jupiter-migrationsupport] as jupiter_migration_support
}

package org.junit.vintage {
    [junit-vintage-engine] as vintage_engine
    [junit:junit] as junit4
}

package org.junit.platform {
    [junit-platform-commons] as commons
    [junit-platform-console] as console
    [junit-platform-engine] as engine
    [junit-platform-gradle-plugin] as gradle
    [junit-platform-launcher] as launcher
    [junit-platform-runner] as runner
    [junit-platform-suite-api] as suite_api
    [junit-platform-surefire-provider] as surefire
}

package org.opentest4j {
    [opentest4j]
}

package org.apiguardian {
    [apiguardian-api] as apiguardian
    note bottom of apiguardian #white
        All artifacts except
        opentest4j and junit:junit
        have a dependency on this
        artifact. The edges have
        been omitted from this
        diagram for the sake of
        readability.
    endnote
}

jupiter_api ..> opentest4j
jupiter_api ..> commons

jupiter_engine ..> engine
jupiter_engine ..> jupiter_api

jupiter_params ..> jupiter_api
jupiter_migration_support ..> jupiter_api
jupiter_migration_support ..> junit4

console ..> launcher

gradle ..> console

launcher ..> engine

engine ..> opentest4j
engine ..> commons

runner ..> launcher
runner ..> suite_api
runner ..> junit4

suite_api ..> commons

surefire ..> launcher

vintage_engine ..> engine
vintage_engine ..> junit4
@enduml

PlantUML version 1.2018.01(Mon Jan 29 03:08:22 JST 2018)
(APACHE source distribution)
Java Runtime: Java(TM) SE Runtime Environment
JVM: Java HotSpot(TM) 64-Bit Server VM
Java Version: 9+181
Operating System: Mac OS X
OS Version: 10.13.3
Default Encoding: UTF-8
Language: ja
Country: JP
--></g></svg>