<?xml version="1.0" encoding="UTF-8" standalone="no"?><svg xmlns="http://www.w3.org/2000/svg" xmlns:xlink="http://www.w3.org/1999/xlink" contentScriptType="application/ecmascript" contentStyleType="text/css" height="507px" preserveAspectRatio="none" style="width:1940px;height:507px;" version="1.1" viewBox="0 0 1940 507" width="1940px" zoomAndPan="magnify"><defs><filter height="300%" id="fkdbpve35g6ob" width="300%" x="-1" y="-1"><feGaussianBlur result="blurOut" stdDeviation="2.0"/><feColorMatrix in="blurOut" result="blurOut2" type="matrix" values="0 0 0 0 0 0 0 0 0 0 0 0 0 0 0 0 0 0 .4 0"/><feOffset dx="4.0" dy="4.0" in="blurOut2" result="blurOut3"/><feBlend in="SourceGraphic" in2="blurOut3" mode="normal"/></filter></defs><g><!--cluster org.junit.jupiter--><polygon fill="#FFFFFF" filter="url(#fkdbpve35g6ob)" points="22,160.5,140,160.5,147,182.9883,680,182.9883,680,384,22,384,22,160.5" style="stroke: #000000; stroke-width: 1.5;"/><line style="stroke: #000000; stroke-width: 1.5;" x1="22" x2="147" y1="182.9883" y2="182.9883"/><text fill="#000000" font-family="Open Sans" font-size="14" font-weight="bold" lengthAdjust="spacingAndGlyphs" textLength="112" x="26" y="176.0352">org.junit.jupiter</text><!--cluster org.junit.vintage--><polygon fill="#FFFFFF" filter="url(#fkdbpve35g6ob)" points="754,160.5,877,160.5,884,182.9883,950,182.9883,950,384,754,384,754,160.5" style="stroke: #000000; stroke-width: 1.5;"/><line style="stroke: #000000; stroke-width: 1.5;" x1="754" x2="884" y1="182.9883" y2="182.9883"/><text fill="#000000" font-family="Open Sans" font-size="14" font-weight="bold" lengthAdjust="spacingAndGlyphs" textLength="117" x="758" y="176.0352">org.junit.vintage</text><!--cluster org.junit.platform--><polygon fill="#FFFFFF" filter="url(#fkdbpve35g6ob)" points="974,24,1107,24,1114,46.4883,1674,46.4883,1674,495,974,495,974,24" style="stroke: #000000; stroke-width: 1.5;"/><line style="stroke: #000000; stroke-width: 1.5;" x1="974" x2="1114" y1="46.4883" y2="46.4883"/><text fill="#000000" font-family="Open Sans" font-size="14" font-weight="bold" lengthAdjust="spacingAndGlyphs" textLength="127" x="978" y="39.5352">org.junit.platform</text><!--cluster org.opentest4j--><polygon fill="#FFFFFF" filter="url(#fkdbpve35g6ob)" points="672,408,782,408,789,430.4883,798,430.4883,798,495,672,495,672,408" style="stroke: #000000; stroke-width: 1.5;"/><line style="stroke: #000000; stroke-width: 1.5;" x1="672" x2="789" y1="430.4883" y2="430.4883"/><text fill="#000000" font-family="Open Sans" font-size="14" font-weight="bold" lengthAdjust="spacingAndGlyphs" textLength="104" x="676" y="423.5352">org.opentest4j</text><!--cluster org.apiguardian--><polygon fill="#FFFFFF" filter="url(#fkdbpve35g6ob)" points="1698,24,1816,24,1823,46.4883,1918,46.4883,1918,288,1698,288,1698,24" style="stroke: #000000; stroke-width: 1.5;"/><line style="stroke: #000000; stroke-width: 1.5;" x1="1698" x2="1823" y1="46.4883" y2="46.4883"/><text fill="#000000" font-family="Open Sans" font-size="14" font-weight="bold" lengthAdjust="spacingAndGlyphs" textLength="112" x="1702" y="39.5352">org.apiguardian</text><!--entity jupiter_api--><rect fill="#FEFECE" filter="url(#fkdbpve35g6ob)" height="36.4883" style="stroke: #A80036; stroke-width: 1.5;" width="133" x="517.5" y="332"/><rect fill="#FEFECE" height="5" style="stroke: #A80036; stroke-width: 1.5;" width="10" x="512.5" y="337"/><rect fill="#FEFECE" height="5" style="stroke: #A80036; stroke-width: 1.5;" width="10" x="512.5" y="358.4883"/><text fill="#000000" font-family="Open Sans" font-size="14" lengthAdjust="spacingAndGlyphs" textLength="113" x="527.5" y="355.5352">junit-jupiter-api</text><!--entity jupiter_engine--><rect fill="#FEFECE" filter="url(#fkdbpve35g6ob)" height="36.4883" style="stroke: #A80036; stroke-width: 1.5;" width="159" x="504.5" y="195.5"/><rect fill="#FEFECE" height="5" style="stroke: #A80036; stroke-width: 1.5;" width="10" x="499.5" y="200.5"/><rect fill="#FEFECE" height="5" style="stroke: #A80036; stroke-width: 1.5;" width="10" x="499.5" y="221.9883"/><text fill="#000000" font-family="Open Sans" font-size="14" lengthAdjust="spacingAndGlyphs" textLength="139" x="514.5" y="219.0352">junit-jupiter-engine</text><!--entity jupiter_params--><rect fill="#FEFECE" filter="url(#fkdbpve35g6ob)" height="36.4883" style="stroke: #A80036; stroke-width: 1.5;" width="163" x="38.5" y="195.5"/><rect fill="#FEFECE" height="5" style="stroke: #A80036; stroke-width: 1.5;" width="10" x="33.5" y="200.5"/><rect fill="#FEFECE" height="5" style="stroke: #A80036; stroke-width: 1.5;" width="10" x="33.5" y="221.9883"/><text fill="#000000" font-family="Open Sans" font-size="14" lengthAdjust="spacingAndGlyphs" textLength="143" x="48.5" y="219.0352">junit-jupiter-params</text><!--entity jupiter_migration_support--><rect fill="#FEFECE" filter="url(#fkdbpve35g6ob)" height="36.4883" style="stroke: #A80036; stroke-width: 1.5;" width="233" x="236.5" y="195.5"/><rect fill="#FEFECE" height="5" style="stroke: #A80036; stroke-width: 1.5;" width="10" x="231.5" y="200.5"/><rect fill="#FEFECE" height="5" style="stroke: #A80036; stroke-width: 1.5;" width="10" x="231.5" y="221.9883"/><text fill="#000000" font-family="Open Sans" font-size="14" lengthAdjust="spacingAndGlyphs" textLength="213" x="246.5" y="219.0352">junit-jupiter-migrationsupport</text><!--entity vintage_engine--><rect fill="#FEFECE" filter="url(#fkdbpve35g6ob)" height="36.4883" style="stroke: #A80036; stroke-width: 1.5;" width="164" x="770" y="195.5"/><rect fill="#FEFECE" height="5" style="stroke: #A80036; stroke-width: 1.5;" width="10" x="765" y="200.5"/><rect fill="#FEFECE" height="5" style="stroke: #A80036; stroke-width: 1.5;" width="10" x="765" y="221.9883"/><text fill="#000000" font-family="Open Sans" font-size="14" lengthAdjust="spacingAndGlyphs" textLength="144" x="780" y="219.0352">junit-vintage-engine</text><!--entity junit4--><rect fill="#FEFECE" filter="url(#fkdbpve35g6ob)" height="36.4883" style="stroke: #A80036; stroke-width: 1.5;" width="86" x="770" y="332"/><rect fill="#FEFECE" height="5" style="stroke: #A80036; stroke-width: 1.5;" width="10" x="765" y="337"/><rect fill="#FEFECE" height="5" style="stroke: #A80036; stroke-width: 1.5;" width="10" x="765" y="358.4883"/><text fill="#000000" font-family="Open Sans" font-size="14" lengthAdjust="spacingAndGlyphs" textLength="66" x="780" y="355.5352">junit:junit</text><!--entity commons--><rect fill="#FEFECE" filter="url(#fkdbpve35g6ob)" height="36.4883" style="stroke: #A80036; stroke-width: 1.5;" width="193" x="990.5" y="443"/><rect fill="#FEFECE" height="5" style="stroke: #A80036; stroke-width: 1.5;" width="10" x="985.5" y="448"/><rect fill="#FEFECE" height="5" style="stroke: #A80036; stroke-width: 1.5;" width="10" x="985.5" y="469.4883"/><text fill="#000000" font-family="Open Sans" font-size="14" lengthAdjust="spacingAndGlyphs" textLength="173" x="1000.5" y="466.5352">junit-platform-commons</text><!--entity console--><rect fill="#FEFECE" filter="url(#fkdbpve35g6ob)" height="36.4883" style="stroke: #A80036; stroke-width: 1.5;" width="179" x="1478.5" y="59"/><rect fill="#FEFECE" height="5" style="stroke: #A80036; stroke-width: 1.5;" width="10" x="1473.5" y="64"/><rect fill="#FEFECE" height="5" style="stroke: #A80036; stroke-width: 1.5;" width="10" x="1473.5" y="85.4883"/><text fill="#000000" font-family="Open Sans" font-size="14" lengthAdjust="spacingAndGlyphs" textLength="159" x="1488.5" y="82.5352">junit-platform-console</text><!--entity engine--><rect fill="#FEFECE" filter="url(#fkdbpve35g6ob)" height="36.4883" style="stroke: #A80036; stroke-width: 1.5;" width="173" x="990.5" y="332"/><rect fill="#FEFECE" height="5" style="stroke: #A80036; stroke-width: 1.5;" width="10" x="985.5" y="337"/><rect fill="#FEFECE" height="5" style="stroke: #A80036; stroke-width: 1.5;" width="10" x="985.5" y="358.4883"/><text fill="#000000" font-family="Open Sans" font-size="14" lengthAdjust="spacingAndGlyphs" textLength="153" x="1000.5" y="355.5352">junit-platform-engine</text><!--entity launcher--><rect fill="#FEFECE" filter="url(#fkdbpve35g6ob)" height="36.4883" style="stroke: #A80036; stroke-width: 1.5;" width="186" x="1199" y="195.5"/><rect fill="#FEFECE" height="5" style="stroke: #A80036; stroke-width: 1.5;" width="10" x="1194" y="200.5"/><rect fill="#FEFECE" height="5" style="stroke: #A80036; stroke-width: 1.5;" width="10" x="1194" y="221.9883"/><text fill="#000000" font-family="Open Sans" font-size="14" lengthAdjust="spacingAndGlyphs" textLength="166" x="1209" y="219.0352">junit-platform-launcher</text><!--entity runner--><rect fill="#FEFECE" filter="url(#fkdbpve35g6ob)" height="36.4883" style="stroke: #A80036; stroke-width: 1.5;" width="173" x="990.5" y="59"/><rect fill="#FEFECE" height="5" style="stroke: #A80036; stroke-width: 1.5;" width="10" x="985.5" y="64"/><rect fill="#FEFECE" height="5" style="stroke: #A80036; stroke-width: 1.5;" width="10" x="985.5" y="85.4883"/><text fill="#000000" font-family="Open Sans" font-size="14" lengthAdjust="spacingAndGlyphs" textLength="153" x="1000.5" y="82.5352">junit-platform-runner</text><!--entity suite_api--><rect fill="#FEFECE" filter="url(#fkdbpve35g6ob)" height="36.4883" style="stroke: #A80036; stroke-width: 1.5;" width="188" x="1199" y="332"/><rect fill="#FEFECE" height="5" style="stroke: #A80036; stroke-width: 1.5;" width="10" x="1194" y="337"/><rect fill="#FEFECE" height="5" style="stroke: #A80036; stroke-width: 1.5;" width="10" x="1194" y="358.4883"/><text fill="#000000" font-family="Open Sans" font-size="14" lengthAdjust="spacingAndGlyphs" textLength="168" x="1209" y="355.5352">junit-platform-suite-api</text><!--entity surefire--><rect fill="#FEFECE" filter="url(#fkdbpve35g6ob)" height="36.4883" style="stroke: #A80036; stroke-width: 1.5;" width="245" x="1198.5" y="59"/><rect fill="#FEFECE" height="5" style="stroke: #A80036; stroke-width: 1.5;" width="10" x="1193.5" y="64"/><rect fill="#FEFECE" height="5" style="stroke: #A80036; stroke-width: 1.5;" width="10" x="1193.5" y="85.4883"/><text fill="#000000" font-family="Open Sans" font-size="14" lengthAdjust="spacingAndGlyphs" textLength="225" x="1208.5" y="82.5352">junit-platform-surefire-provider</text><!--entity opentest4j--><rect fill="#FEFECE" filter="url(#fkdbpve35g6ob)" height="36.4883" style="stroke: #A80036; stroke-width: 1.5;" width="93" x="688.5" y="443"/><rect fill="#FEFECE" height="5" style="stroke: #A80036; stroke-width: 1.5;" width="10" x="683.5" y="448"/><rect fill="#FEFECE" height="5" style="stroke: #A80036; stroke-width: 1.5;" width="10" x="683.5" y="469.4883"/><text fill="#000000" font-family="Open Sans" font-size="14" lengthAdjust="spacingAndGlyphs" textLength="73" x="698.5" y="466.5352">opentest4j</text><!--entity apiguardian--><rect fill="#FEFECE" filter="url(#fkdbpve35g6ob)" height="36.4883" style="stroke: #A80036; stroke-width: 1.5;" width="132" x="1742" y="59"/><rect fill="#FEFECE" height="5" style="stroke: #A80036; stroke-width: 1.5;" width="10" x="1737" y="64"/><rect fill="#FEFECE" height="5" style="stroke: #A80036; stroke-width: 1.5;" width="10" x="1737" y="85.4883"/><text fill="#000000" font-family="Open Sans" font-size="14" lengthAdjust="spacingAndGlyphs" textLength="112" x="1752" y="82.5352">apiguardian-api</text><path d="M1714,155 L1714,272.1738 A0,0 0 0 0 1714,272.1738 L1902,272.1738 A0,0 0 0 0 1902,272.1738 L1902,165 L1892,155 L1812,155 L1808,95.035 L1804,155 L1714,155 A0,0 0 0 0 1714,155 " fill="#FFFFFF" filter="url(#fkdbpve35g6ob)" style="stroke: #A80036; stroke-width: 1.0;"/><path d="M1892,155 L1892,165 L1902,165 L1892,155 " fill="#FFFFFF" style="stroke: #A80036; stroke-width: 1.0;"/><text fill="#000000" font-family="Open Sans" font-size="13" lengthAdjust="spacingAndGlyphs" textLength="119" x="1720" y="172.5684">All artifacts except</text><text fill="#000000" font-family="Open Sans" font-size="13" lengthAdjust="spacingAndGlyphs" textLength="160" x="1720" y="187.8789">opentest4j and junit:junit</text><text fill="#000000" font-family="Open Sans" font-size="13" lengthAdjust="spacingAndGlyphs" textLength="167" x="1720" y="203.1895">have a dependency on this</text><text fill="#000000" font-family="Open Sans" font-size="13" lengthAdjust="spacingAndGlyphs" textLength="150" x="1720" y="218.5">artifact. The edges have</text><text fill="#000000" font-family="Open Sans" font-size="13" lengthAdjust="spacingAndGlyphs" textLength="145" x="1720" y="233.8105">been omitted from this</text><text fill="#000000" font-family="Open Sans" font-size="13" lengthAdjust="spacingAndGlyphs" textLength="147" x="1720" y="249.1211">diagram for the sake of</text><text fill="#000000" font-family="Open Sans" font-size="13" lengthAdjust="spacingAndGlyphs" textLength="70" x="1720" y="264.4316">readability.</text><!--link jupiter_api to opentest4j--><path d="M607.594,368.031 C634.474,387.435 678.367,419.1191 706.968,439.7653 " fill="none" id="jupiter_api-opentest4j" style="stroke: #A80036; stroke-width: 1.0; stroke-dasharray: 7.0,7.0;"/><polygon fill="#A80036" points="711.074,442.7286,706.1187,434.2172,707.0202,439.8017,701.4356,440.7032,711.074,442.7286" style="stroke: #A80036; stroke-width: 1.0;"/><!--link jupiter_api to commons--><path d="M650.817,368.043 C682.065,375.775 719.84,384.781 754,392 C773.447,396.109 778.49,396.202 798,400 C866.966,413.4266 944.959,429.6824 1002.526,441.8853 " fill="none" id="jupiter_api-commons" style="stroke: #A80036; stroke-width: 1.0; stroke-dasharray: 7.0,7.0;"/><polygon fill="#A80036" points="1007.68,442.9789,999.7071,437.1968,1002.789,441.9404,998.0455,445.0223,1007.68,442.9789" style="stroke: #A80036; stroke-width: 1.0;"/><!--link jupiter_engine to engine--><path d="M613.043,231.59 C646.079,250.266 702.173,279.693 754,296 C795.969,309.206 905.346,325.827 985.227,336.901 " fill="none" id="jupiter_engine-engine" style="stroke: #A80036; stroke-width: 1.0; stroke-dasharray: 7.0,7.0;"/><polygon fill="#A80036" points="990.445,337.622,982.0786,332.4255,985.4922,336.9363,980.9815,340.3499,990.445,337.622" style="stroke: #A80036; stroke-width: 1.0;"/><!--link jupiter_engine to jupiter_api--><path d="M584,231.535 C584,255.657 584,299.805 584,326.569 " fill="none" id="jupiter_engine-jupiter_api" style="stroke: #A80036; stroke-width: 1.0; stroke-dasharray: 7.0,7.0;"/><polygon fill="#A80036" points="584,331.679,588,322.679,584,326.679,580,322.679,584,331.679" style="stroke: #A80036; stroke-width: 1.0;"/><!--link jupiter_params to jupiter_api--><path d="M135.249,231.749 C153.23,250.86 185,280.96 219,296 C270.079,318.595 421.04,335.007 512.033,343.17 " fill="none" id="jupiter_params-jupiter_api" style="stroke: #A80036; stroke-width: 1.0; stroke-dasharray: 7.0,7.0;"/><polygon fill="#A80036" points="517.129,343.625,508.5199,338.8413,512.1488,343.1808,507.8092,346.8097,517.129,343.625" style="stroke: #A80036; stroke-width: 1.0;"/><!--link jupiter_migration_support to jupiter_api--><path d="M380.238,231.576 C407.158,248.331 449.617,274.434 487,296 C506.768,307.404 529.102,319.65 547.352,329.495 " fill="none" id="jupiter_migration_support-jupiter_api" style="stroke: #A80036; stroke-width: 1.0; stroke-dasharray: 7.0,7.0;"/><polygon fill="#A80036" points="551.9,331.944,545.8731,324.1545,547.4979,329.573,542.0794,331.1978,551.9,331.944" style="stroke: #A80036; stroke-width: 1.0;"/><!--link jupiter_migration_support to junit4--><path d="M375.319,231.83 C400.844,250.721 444.6,280.34 487,296 C512.586,305.45 680.218,330.129 764.617,342.18 " fill="none" id="jupiter_migration_support-junit4" style="stroke: #A80036; stroke-width: 1.0; stroke-dasharray: 7.0,7.0;"/><polygon fill="#A80036" points="769.807,342.921,761.4617,337.6908,764.8571,342.2153,760.3325,345.6107,769.807,342.921" style="stroke: #A80036; stroke-width: 1.0;"/><!--link console to launcher--><path d="M1533.04,95.035 C1481.65,120.08 1385.96,166.713 1331.89,193.063 " fill="none" id="console-launcher" style="stroke: #A80036; stroke-width: 1.0; stroke-dasharray: 7.0,7.0;"/><polygon fill="#A80036" points="1327.11,195.392,1336.9522,195.0289,1331.6011,193.1943,1333.4358,187.8432,1327.11,195.392" style="stroke: #A80036; stroke-width: 1.0;"/><!--link launcher to engine--><path d="M1264.77,231.535 C1224.98,256.428 1151.09,302.651 1108.84,329.083 " fill="none" id="launcher-engine" style="stroke: #A80036; stroke-width: 1.0; stroke-dasharray: 7.0,7.0;"/><polygon fill="#A80036" points="1104.35,331.892,1114.1036,330.5258,1108.5932,329.2471,1109.8719,323.7367,1104.35,331.892" style="stroke: #A80036; stroke-width: 1.0;"/><!--link engine to opentest4j--><path d="M1024.5,368.026 C1001.627,375.424 974.497,384.172 950,392 C894.164,409.843 830.095,430.0754 786.523,443.7988 " fill="none" id="engine-opentest4j" style="stroke: #A80036; stroke-width: 1.0; stroke-dasharray: 7.0,7.0;"/><polygon fill="#A80036" points="781.579,445.3559,791.3648,446.4687,786.3482,443.8544,788.9625,438.8379,781.579,445.3559" style="stroke: #A80036; stroke-width: 1.0;"/><!--link engine to commons--><path d="M1078.56,368.031 C1080.28,386.798 1083.06,417.0547 1084.95,437.6998 " fill="none" id="engine-commons" style="stroke: #A80036; stroke-width: 1.0; stroke-dasharray: 7.0,7.0;"/><polygon fill="#A80036" points="1085.42,442.7286,1088.5796,433.4003,1084.9624,437.7496,1080.6132,434.1324,1085.42,442.7286" style="stroke: #A80036; stroke-width: 1.0;"/><!--link runner to launcher--><path d="M1104.23,95.035 C1144.02,119.928 1217.91,166.151 1260.16,192.583 " fill="none" id="runner-launcher" style="stroke: #A80036; stroke-width: 1.0; stroke-dasharray: 7.0,7.0;"/><polygon fill="#A80036" points="1264.65,195.392,1259.1281,187.2367,1260.4068,192.7471,1254.8964,194.0258,1264.65,195.392" style="stroke: #A80036; stroke-width: 1.0;"/><!--link runner to suite_api--><path d="M1080.92,95.025 C1090.94,135.04 1121.01,236.198 1181,296 C1195.68,310.631 1215.17,321.755 1233.77,329.941 " fill="none" id="runner-suite_api" style="stroke: #A80036; stroke-width: 1.0; stroke-dasharray: 7.0,7.0;"/><polygon fill="#A80036" points="1238.48,331.959,1231.7858,324.7349,1233.8849,329.9879,1228.632,332.087,1238.48,331.959" style="stroke: #A80036; stroke-width: 1.0;"/><!--link runner to junit4--><path d="M990.336,85.833 C904.36,95.611 781.307,115.714 752,152.5 C712.259,202.382 725.545,237.968 752,296 C757.96,309.075 768.916,320.171 779.915,328.779 " fill="none" id="runner-junit4" style="stroke: #A80036; stroke-width: 1.0; stroke-dasharray: 7.0,7.0;"/><polygon fill="#A80036" points="783.96,331.837,779.1935,323.2184,779.9717,328.8215,774.3686,329.5997,783.96,331.837" style="stroke: #A80036; stroke-width: 1.0;"/><!--link suite_api to commons--><path d="M1260.81,368.031 C1223.73,387.651 1162.92,419.828 1123.94,440.4525 " fill="none" id="suite_api-commons" style="stroke: #A80036; stroke-width: 1.0; stroke-dasharray: 7.0,7.0;"/><polygon fill="#A80036" points="1119.3,442.9088,1129.1253,442.2275,1123.7176,440.5669,1125.3782,435.1593,1119.3,442.9088" style="stroke: #A80036; stroke-width: 1.0;"/><!--link surefire to launcher--><path d="M1317.33,95.035 C1312.13,119.157 1302.61,163.305 1296.84,190.069 " fill="none" id="surefire-launcher" style="stroke: #A80036; stroke-width: 1.0; stroke-dasharray: 7.0,7.0;"/><polygon fill="#A80036" points="1295.73,195.179,1301.5384,187.2252,1296.7847,190.2915,1293.7184,185.5378,1295.73,195.179" style="stroke: #A80036; stroke-width: 1.0;"/><!--link vintage_engine to engine--><path d="M875.785,231.564 C900.003,248.657 938.879,275.324 974,296 C994.13,307.851 1017.2,319.859 1036.39,329.442 " fill="none" id="vintage_engine-engine" style="stroke: #A80036; stroke-width: 1.0; stroke-dasharray: 7.0,7.0;"/><polygon fill="#A80036" points="1041.19,331.824,1034.9154,324.2326,1036.7139,329.5959,1031.3505,331.3944,1041.19,331.824" style="stroke: #A80036; stroke-width: 1.0;"/><!--link vintage_engine to junit4--><path d="M847.061,231.535 C840.066,255.657 827.265,299.805 819.504,326.569 " fill="none" id="vintage_engine-junit4" style="stroke: #A80036; stroke-width: 1.0; stroke-dasharray: 7.0,7.0;"/><polygon fill="#A80036" points="818.022,331.679,824.3705,324.1493,819.4146,326.8769,816.6871,321.921,818.022,331.679" style="stroke: #A80036; stroke-width: 1.0;"/><!--
@startuml
skinparam {
    defaultFontName Open Sans
}

package org.junit.jupiter {
    [junit-jupiter-api] as jupiter_api
    [junit-jupiter-engine] as jupiter_engine
    [junit-jupiter-params] as jupiter_params
    [junit-jupiter-migrationsupport] as jupiter_migration_support
}

package org.junit.vintage {
    [junit-vintage-engine] as vintage_engine
    [junit:junit] as junit4
}

package org.junit.platform {
    [junit-platform-commons] as commons
    [junit-platform-console] as console
    [junit-platform-engine] as engine
    [junit-platform-launcher] as launcher
    [junit-platform-runner] as runner
    [junit-platform-suite-api] as suite_api
    [junit-platform-surefire-provider] as surefire
}

package org.opentest4j {
    [opentest4j]
}

package org.apiguardian {
    [apiguardian-api] as apiguardian
    note bottom of apiguardian #white
        All artifacts except
        opentest4j and junit:junit
        have a dependency on this
        artifact. The edges have
        been omitted from this
        diagram for the sake of
        readability.
    endnote
}

jupiter_api ..> opentest4j
jupiter_api ..> commons

jupiter_engine ..> engine
jupiter_engine ..> jupiter_api

jupiter_params ..> jupiter_api
jupiter_migration_support ..> jupiter_api
jupiter_migration_support ..> junit4

console ..> launcher

launcher ..> engine

engine ..> opentest4j
engine ..> commons

runner ..> launcher
runner ..> suite_api
runner ..> junit4

suite_api ..> commons

surefire ..> launcher

vintage_engine ..> engine
vintage_engine ..> junit4
@enduml

PlantUML version 1.2018.01(Mon Jan 29 03:08:22 JST 2018)
(APACHE source distribution)
Java Runtime: Java(TM) SE Runtime Environment
JVM: Java HotSpot(TM) 64-Bit Server VM
Java Version: 10.0.2+13
Operating System: Mac OS X
OS Version: 10.13.6
Default Encoding: UTF-8
Language: ja
Country: JP
--></g></svg>